# xmcd CD database file
#
# Track frame offsets:
#	150
#	22557
#	48055
#	67094
#	84459
#	113976
#	137324
#	153106
#	169545
#	193962
#	215980
#	235111
#	251837
#	274772
#	289283
#
# Disc length: 4022 seconds
#
# Revision: 1
# Processed by: cddbd v1.5.2PL0 Copyright (c) Steve Scherf et al.
# Submitted via: CDex 1.51
#
DISCID=d00fb40f
DTITLE=BluesTones - BluesTools
DYEAR=2010
DGENRE=Blues
TTITLE0=Know You Rider
TTITLE1=Me And The Devil
TTITLE2=You Can Love Yourself
TTITLE3=Milkcow Calf Blues
TTITLE4=Malted Milk
TTITLE5=Big Boss Man
TTITLE6=Steady Rollin´Girl
TTITLE7=Stop Breakin´Down
TTITLE8=Hesitation Blues
TTITLE9=Soulshine
TTITLE10=Railroad Boy
TTITLE11=Come On In My Kitchen
TTITLE12=Death Don´t have No Mercy
TTITLE13=Last Fair Deal Goin´Down
TTITLE14=Grand South
EXTD=YEAR: 2010
EXTT0=
EXTT1=
EXTT2=
EXTT3=
EXTT4=
EXTT5=
EXTT6=
EXTT7=
EXTT8=
EXTT9=
EXTT10=
EXTT11=
EXTT12=
EXTT13=
EXTT14=
PLAYORDER=
